<?xml version="1.0" encoding="utf-8"?>
<!-- Generator: Adobe Illustrator 17.0.0, SVG Export Plug-In . SVG Version: 6.00 Build 0)  -->
<!DOCTYPE svg PUBLIC "-//W3C//DTD SVG 1.1//EN" "http://www.w3.org/Graphics/SVG/1.1/DTD/svg11.dtd">
<svg version="1.1" id="Layer_1" xmlns="http://www.w3.org/2000/svg" xmlns:xlink="http://www.w3.org/1999/xlink" x="0px" y="0px"
	 width="578.8px" height="578.8px" viewBox="110.6 110.6 578.8 578.8" enable-background="new 110.6 110.6 578.8 578.8"
	 xml:space="preserve">
<g>
	<path fill="#ED9D5D" d="M400,110.6c160.485,0,289.4,128.915,289.4,289.4S560.485,689.4,400,689.4S110.6,560.485,110.6,400
		S239.515,110.6,400,110.6z"/>
	<path fill="#D58D54" d="M400,189.527c-115.759,0-210.473,94.712-210.473,210.473S284.239,610.473,400,610.473
		S610.473,515.761,610.473,400S515.759,189.527,400,189.527z M400,557.854c-86.821,0-157.854-71.036-157.854-157.854
		S313.182,242.146,400,242.146S557.854,313.182,557.854,400S486.818,557.854,400,557.854z"/>
</g>
</svg>
